<svg width="24" height="24" viewBox="0 0 17 17" fill="none" xmlns="http://www.w3.org/2000/svg">
<path d="M3.4708 13.529C0.708301 10.7665 0.708301 6.2332 3.4708 3.4707" stroke="white" stroke-width="2" stroke-linecap="round" stroke-linejoin="round"/>
<path d="M5.5251 11.4749C3.89593 9.84577 3.89593 7.1541 5.5251 5.4541" stroke="white" stroke-width="2" stroke-linecap="round" stroke-linejoin="round"/>
<path d="M8.49992 9.91634C9.28232 9.91634 9.91659 9.28208 9.91659 8.49967C9.91659 7.71727 9.28232 7.08301 8.49992 7.08301C7.71752 7.08301 7.08325 7.71727 7.08325 8.49967C7.08325 9.28208 7.71752 9.91634 8.49992 9.91634Z" stroke="white" stroke-width="2" stroke-linecap="round" stroke-linejoin="round"/>
<path d="M11.4751 5.52539C13.1043 7.15456 13.1043 9.84622 11.4751 11.5462" stroke="white" stroke-width="2" stroke-linecap="round" stroke-linejoin="round"/>
<path d="M13.5291 3.4707C16.2916 6.2332 16.2916 10.6957 13.5291 13.4582" stroke="white" stroke-width="2" stroke-linecap="round" stroke-linejoin="round"/>
</svg>
